<svg width="390" height="29" viewBox="0 0 390 29" fill="none" xmlns="http://www.w3.org/2000/svg">
<path d="M33.28 23V6.2H37.912C38.648 6.2 39.304 6.296 39.88 6.488C40.472 6.68 40.968 6.952 41.368 7.304C41.784 7.64 42.096 8.056 42.304 8.552C42.528 9.032 42.64 9.568 42.64 10.16C42.64 10.736 42.544 11.248 42.352 11.696C42.176 12.128 41.936 12.504 41.632 12.824C41.344 13.128 41.024 13.376 40.672 13.568C40.336 13.744 40 13.872 39.664 13.952L39.592 13.568C40.232 13.584 40.824 13.704 41.368 13.928C41.912 14.136 42.376 14.432 42.76 14.816C43.16 15.2 43.464 15.664 43.672 16.208C43.896 16.736 44.008 17.32 44.008 17.96C44.008 18.696 43.864 19.376 43.576 20C43.288 20.624 42.88 21.16 42.352 21.608C41.84 22.04 41.216 22.384 40.48 22.64C39.744 22.88 38.936 23 38.056 23H33.28ZM35.512 22.136L34.672 20.96H37.528C38.232 20.96 38.848 20.888 39.376 20.744C39.904 20.6 40.336 20.392 40.672 20.12C41.008 19.832 41.256 19.504 41.416 19.136C41.592 18.752 41.68 18.328 41.68 17.864C41.68 17.368 41.592 16.944 41.416 16.592C41.24 16.224 40.984 15.92 40.648 15.68C40.328 15.424 39.936 15.24 39.472 15.128C39.024 15.016 38.52 14.96 37.96 14.96H34.96V13.04H37.288C37.752 13.04 38.168 12.984 38.536 12.872C38.92 12.76 39.248 12.6 39.52 12.392C39.792 12.184 40 11.928 40.144 11.624C40.288 11.304 40.36 10.944 40.36 10.544C40.36 9.76 40.112 9.184 39.616 8.816C39.12 8.432 38.344 8.24 37.288 8.24H34.672L35.512 7.112V22.136ZM51.5676 23.192C50.7516 23.192 49.9996 23.064 49.3116 22.808C48.6396 22.536 48.0476 22.16 47.5356 21.68C47.0396 21.2 46.6476 20.624 46.3596 19.952C46.0876 19.28 45.9516 18.52 45.9516 17.672C45.9516 16.792 46.0956 16.008 46.3836 15.32C46.6876 14.632 47.0956 14.056 47.6076 13.592C48.1196 13.112 48.7036 12.744 49.3596 12.488C50.0316 12.232 50.7356 12.104 51.4716 12.104C52.3036 12.104 53.0396 12.256 53.6796 12.56C54.3356 12.848 54.8876 13.248 55.3356 13.76C55.7836 14.256 56.1196 14.832 56.3436 15.488C56.5836 16.128 56.7036 16.8 56.7036 17.504V18.104H47.2716V16.52H55.8636L54.6156 17.792V17.144C54.6156 16.696 54.5356 16.28 54.3756 15.896C54.2156 15.512 53.9836 15.176 53.6796 14.888C53.3916 14.6 53.0476 14.376 52.6476 14.216C52.2476 14.04 51.8076 13.952 51.3276 13.952C50.8636 13.952 50.4236 14.04 50.0076 14.216C49.6076 14.376 49.2636 14.616 48.9756 14.936C48.6876 15.256 48.4556 15.64 48.2796 16.088C48.1196 16.536 48.0396 17.04 48.0396 17.6C48.0396 18.176 48.1276 18.696 48.3036 19.16C48.4956 19.624 48.7516 20.024 49.0716 20.36C49.4076 20.68 49.7996 20.928 50.2476 21.104C50.6956 21.28 51.1836 21.368 51.7116 21.368C52.3836 21.368 52.9996 21.24 53.5596 20.984C54.1356 20.728 54.6076 20.376 54.9756 19.928L56.2716 21.128C55.7436 21.816 55.0636 22.336 54.2316 22.688C53.3996 23.024 52.5116 23.192 51.5676 23.192ZM61.441 28.76H59.305V15.44V15.272V12.296H61.321V15.272L61.441 15.44V20V20.336V28.76ZM65.113 23.192C64.569 23.192 64.057 23.112 63.577 22.952C63.113 22.792 62.697 22.584 62.329 22.328C61.977 22.056 61.673 21.744 61.417 21.392C61.177 21.04 61.017 20.664 60.937 20.264V17.72H61.441C61.441 18.168 61.513 18.608 61.657 19.04C61.817 19.472 62.033 19.856 62.305 20.192C62.593 20.512 62.937 20.776 63.337 20.984C63.753 21.176 64.217 21.272 64.729 21.272C65.209 21.272 65.649 21.184 66.049 21.008C66.449 20.832 66.785 20.584 67.057 20.264C67.345 19.944 67.569 19.56 67.729 19.112C67.889 18.664 67.969 18.168 67.969 17.624C67.969 17.048 67.881 16.536 67.705 16.088C67.545 15.64 67.313 15.264 67.009 14.96C66.721 14.656 66.377 14.432 65.977 14.288C65.593 14.128 65.169 14.048 64.705 14.048C64.177 14.048 63.713 14.144 63.313 14.336C62.913 14.528 62.569 14.776 62.281 15.08C62.009 15.384 61.801 15.752 61.657 16.184C61.513 16.6 61.441 17.032 61.441 17.48H61.057V14.744C61.105 14.424 61.233 14.112 61.441 13.808C61.665 13.488 61.945 13.2 62.281 12.944C62.633 12.688 63.049 12.488 63.529 12.344C64.009 12.184 64.537 12.104 65.113 12.104C65.801 12.104 66.457 12.24 67.081 12.512C67.705 12.768 68.249 13.136 68.713 13.616C69.177 14.096 69.545 14.68 69.817 15.368C70.089 16.04 70.225 16.8 70.225 17.648C70.225 18.496 70.081 19.264 69.793 19.952C69.521 20.64 69.145 21.224 68.665 21.704C68.201 22.184 67.657 22.552 67.033 22.808C66.409 23.064 65.769 23.192 65.113 23.192ZM73.9804 18.32V16.424H81.1804V18.32H73.9804ZM72.8284 23V20.336V19.976V15.44V15.272V12.296H74.9644V15.272V15.44V23H72.8284ZM80.2444 23V20.336V19.976V15.44V15.272V12.296H82.3804V15.272V15.44V23H80.2444ZM86.7025 28.76V28.472L92.6785 12.296H94.6945L94.6705 12.656L88.7185 28.76H86.7025ZM88.9825 23.48L84.3505 12.656V12.296H86.5345L90.0865 20.84L88.9825 23.48ZM99.4377 23V14.216H95.9577V12.296H105.078V14.216H101.598V23H99.4377ZM107.282 23V12.296H109.418V15.752H111.65C113.106 15.752 114.21 16.04 114.962 16.616C115.714 17.192 116.09 18.096 116.09 19.328C116.09 20.544 115.706 21.464 114.938 22.088C114.186 22.696 113.01 23 111.41 23H107.282ZM111.098 21.176C111.498 21.176 111.874 21.152 112.226 21.104C112.578 21.056 112.874 20.968 113.114 20.84C113.37 20.696 113.562 20.504 113.69 20.264C113.834 20.024 113.906 19.712 113.906 19.328C113.906 18.992 113.842 18.712 113.714 18.488C113.602 18.248 113.434 18.064 113.21 17.936C112.986 17.792 112.706 17.696 112.37 17.648C112.05 17.584 111.674 17.552 111.242 17.552H109.418V21.176H111.098ZM123.379 23.192C122.531 23.192 121.755 23.056 121.051 22.784C120.363 22.496 119.779 22.104 119.299 21.608C118.819 21.112 118.451 20.528 118.195 19.856C117.939 19.168 117.811 18.424 117.811 17.624C117.811 16.76 117.955 15.992 118.243 15.32C118.531 14.632 118.923 14.056 119.419 13.592C119.915 13.112 120.499 12.744 121.171 12.488C121.859 12.232 122.595 12.104 123.379 12.104C123.795 12.104 124.203 12.144 124.603 12.224C125.003 12.304 125.379 12.416 125.731 12.56C126.083 12.688 126.411 12.856 126.715 13.064C127.019 13.256 127.283 13.472 127.507 13.712L126.331 15.272C125.995 14.888 125.579 14.584 125.083 14.36C124.587 14.12 124.051 14 123.475 14C122.979 14 122.515 14.088 122.083 14.264C121.667 14.424 121.299 14.664 120.979 14.984C120.675 15.288 120.435 15.664 120.259 16.112C120.083 16.544 119.995 17.032 119.995 17.576C119.995 18.136 120.083 18.648 120.259 19.112C120.435 19.56 120.683 19.952 121.003 20.288C121.323 20.608 121.699 20.856 122.131 21.032C122.563 21.208 123.043 21.296 123.571 21.296C124.195 21.296 124.739 21.184 125.203 20.96C125.683 20.72 126.083 20.408 126.403 20.024L127.723 21.32C127.259 21.88 126.659 22.336 125.923 22.688C125.187 23.024 124.339 23.192 123.379 23.192ZM136.328 23V19.376H134.072C132.6 19.376 131.48 19.096 130.712 18.536C129.96 17.96 129.584 17.072 129.584 15.872C129.584 14.688 129.96 13.8 130.712 13.208C131.48 12.6 132.664 12.296 134.264 12.296H138.464V23H136.328ZM129.128 23V22.712L132.728 17.864L134.84 18.392L131.48 23H129.128ZM134.192 17.72H136.328V14.12H134.336C133.92 14.12 133.552 14.144 133.232 14.192C132.912 14.224 132.64 14.304 132.416 14.432C132.192 14.56 132.024 14.744 131.912 14.984C131.8 15.224 131.744 15.536 131.744 15.92C131.744 16.608 131.936 17.08 132.32 17.336C132.704 17.592 133.328 17.72 134.192 17.72ZM155.335 23L150.631 17.408L154.591 12.296H156.871V12.608L153.079 17.192L157.783 22.712V23H155.335ZM148.759 18.152V16.424H151.663V18.152H148.759ZM148.063 23V20.336V19.976V15.44V15.272V12.296H150.199V15.272V15.44V23H148.063ZM170.582 23.192C169.734 23.192 168.958 23.056 168.254 22.784C167.566 22.496 166.982 22.104 166.502 21.608C166.022 21.112 165.654 20.528 165.398 19.856C165.142 19.168 165.014 18.424 165.014 17.624C165.014 16.76 165.158 15.992 165.446 15.32C165.734 14.632 166.126 14.056 166.622 13.592C167.118 13.112 167.702 12.744 168.374 12.488C169.062 12.232 169.798 12.104 170.582 12.104C170.998 12.104 171.406 12.144 171.806 12.224C172.206 12.304 172.582 12.416 172.934 12.56C173.286 12.688 173.614 12.856 173.918 13.064C174.222 13.256 174.486 13.472 174.71 13.712L173.534 15.272C173.198 14.888 172.782 14.584 172.286 14.36C171.79 14.12 171.254 14 170.678 14C170.182 14 169.718 14.088 169.286 14.264C168.87 14.424 168.502 14.664 168.182 14.984C167.878 15.288 167.638 15.664 167.462 16.112C167.286 16.544 167.198 17.032 167.198 17.576C167.198 18.136 167.286 18.648 167.462 19.112C167.638 19.56 167.886 19.952 168.206 20.288C168.526 20.608 168.902 20.856 169.334 21.032C169.766 21.208 170.246 21.296 170.774 21.296C171.398 21.296 171.942 21.184 172.406 20.96C172.886 20.72 173.286 20.408 173.606 20.024L174.926 21.32C174.462 21.88 173.862 22.336 173.126 22.688C172.39 23.024 171.542 23.192 170.582 23.192ZM177.172 23V12.296H182.188C183.292 12.296 184.116 12.536 184.66 13.016C185.204 13.496 185.476 14.112 185.476 14.864C185.476 15.232 185.412 15.56 185.284 15.848C185.156 16.12 184.972 16.36 184.732 16.568C184.508 16.776 184.236 16.928 183.916 17.024C183.612 17.12 183.268 17.168 182.884 17.168V17.048C183.396 17.048 183.868 17.096 184.3 17.192C184.732 17.288 185.108 17.448 185.428 17.672C185.764 17.88 186.02 18.168 186.196 18.536C186.388 18.888 186.484 19.32 186.484 19.832C186.484 20.824 186.124 21.6 185.404 22.16C184.7 22.72 183.652 23 182.26 23H177.172ZM179.308 21.848L178.876 21.224H181.708C182.62 21.224 183.276 21.088 183.676 20.816C184.076 20.544 184.276 20.136 184.276 19.592C184.276 19.016 184.076 18.616 183.676 18.392C183.276 18.152 182.684 18.032 181.9 18.032H178.876V16.496H181.588C182.196 16.496 182.66 16.408 182.98 16.232C183.3 16.056 183.46 15.736 183.46 15.272C183.46 14.84 183.3 14.536 182.98 14.36C182.676 14.168 182.204 14.072 181.564 14.072H178.876L179.308 13.328V21.848ZM193.645 23.192C192.845 23.192 192.101 23.056 191.413 22.784C190.741 22.496 190.157 22.104 189.661 21.608C189.165 21.112 188.773 20.528 188.485 19.856C188.213 19.168 188.077 18.424 188.077 17.624C188.077 16.824 188.213 16.088 188.485 15.416C188.773 14.728 189.165 14.144 189.661 13.664C190.157 13.168 190.741 12.784 191.413 12.512C192.101 12.24 192.845 12.104 193.645 12.104C194.445 12.104 195.181 12.24 195.853 12.512C196.541 12.784 197.133 13.168 197.629 13.664C198.125 14.144 198.509 14.72 198.781 15.392C199.069 16.064 199.213 16.808 199.213 17.624C199.213 18.424 199.069 19.168 198.781 19.856C198.493 20.528 198.101 21.112 197.605 21.608C197.109 22.104 196.525 22.496 195.853 22.784C195.181 23.056 194.445 23.192 193.645 23.192ZM193.645 21.296C194.157 21.296 194.621 21.208 195.037 21.032C195.453 20.856 195.805 20.608 196.093 20.288C196.381 19.952 196.605 19.56 196.765 19.112C196.925 18.648 197.005 18.152 197.005 17.624C197.005 17.08 196.925 16.592 196.765 16.16C196.621 15.712 196.397 15.328 196.093 15.008C195.805 14.688 195.453 14.44 195.037 14.264C194.621 14.088 194.157 14 193.645 14C193.133 14 192.669 14.088 192.253 14.264C191.837 14.44 191.477 14.688 191.173 15.008C190.885 15.328 190.661 15.712 190.501 16.16C190.341 16.592 190.261 17.08 190.261 17.624C190.261 18.152 190.341 18.64 190.501 19.088C190.661 19.536 190.885 19.928 191.173 20.264C191.477 20.6 191.837 20.856 192.253 21.032C192.669 21.208 193.133 21.296 193.645 21.296ZM206.797 23.192C205.741 23.192 204.845 23.024 204.109 22.688C203.373 22.352 202.781 21.856 202.333 21.2C201.885 20.528 201.557 19.696 201.349 18.704C201.157 17.712 201.061 16.568 201.061 15.272C201.061 13.624 201.229 12.256 201.565 11.168C201.901 10.064 202.365 9.176 202.957 8.504C203.565 7.832 204.277 7.36 205.093 7.088C205.925 6.8 206.821 6.656 207.781 6.656C208.085 6.656 208.349 6.64 208.573 6.608C208.797 6.576 208.997 6.528 209.173 6.464C209.349 6.384 209.501 6.288 209.629 6.176C209.757 6.048 209.877 5.896 209.989 5.72L211.669 6.56C211.557 6.944 211.405 7.264 211.213 7.52C211.021 7.776 210.773 7.984 210.469 8.144C210.165 8.304 209.797 8.424 209.365 8.504C208.933 8.584 208.429 8.632 207.853 8.648C207.021 8.664 206.301 8.768 205.693 8.96C205.085 9.136 204.581 9.496 204.181 10.04C203.797 10.568 203.509 11.328 203.317 12.32C203.141 13.296 203.053 14.592 203.053 16.208L202.453 15.776C202.645 15.12 202.893 14.568 203.197 14.12C203.501 13.656 203.845 13.28 204.229 12.992C204.629 12.704 205.061 12.496 205.525 12.368C206.005 12.224 206.517 12.152 207.061 12.152C207.877 12.152 208.605 12.288 209.245 12.56C209.885 12.832 210.429 13.216 210.877 13.712C211.325 14.192 211.661 14.768 211.885 15.44C212.125 16.096 212.245 16.816 212.245 17.6C212.245 18.48 212.101 19.272 211.813 19.976C211.525 20.664 211.133 21.248 210.637 21.728C210.157 22.192 209.581 22.552 208.909 22.808C208.253 23.064 207.549 23.192 206.797 23.192ZM206.749 21.296C207.229 21.296 207.669 21.208 208.069 21.032C208.469 20.856 208.813 20.616 209.101 20.312C209.389 19.992 209.605 19.608 209.749 19.16C209.909 18.712 209.989 18.208 209.989 17.648C209.989 17.104 209.917 16.616 209.773 16.184C209.629 15.736 209.413 15.352 209.125 15.032C208.853 14.712 208.509 14.464 208.093 14.288C207.693 14.112 207.229 14.024 206.701 14.024C206.205 14.024 205.757 14.112 205.357 14.288C204.957 14.464 204.613 14.704 204.325 15.008C204.037 15.312 203.821 15.688 203.677 16.136C203.533 16.584 203.461 17.08 203.461 17.624C203.461 18.216 203.541 18.736 203.701 19.184C203.877 19.632 204.109 20.016 204.397 20.336C204.685 20.64 205.029 20.88 205.429 21.056C205.829 21.216 206.269 21.296 206.749 21.296ZM219.684 23.192C218.884 23.192 218.14 23.056 217.452 22.784C216.78 22.496 216.196 22.104 215.7 21.608C215.204 21.112 214.812 20.528 214.524 19.856C214.252 19.168 214.116 18.424 214.116 17.624C214.116 16.824 214.252 16.088 214.524 15.416C214.812 14.728 215.204 14.144 215.7 13.664C216.196 13.168 216.78 12.784 217.452 12.512C218.14 12.24 218.884 12.104 219.684 12.104C220.484 12.104 221.22 12.24 221.892 12.512C222.58 12.784 223.172 13.168 223.668 13.664C224.164 14.144 224.548 14.72 224.82 15.392C225.108 16.064 225.252 16.808 225.252 17.624C225.252 18.424 225.108 19.168 224.82 19.856C224.532 20.528 224.14 21.112 223.644 21.608C223.148 22.104 222.564 22.496 221.892 22.784C221.22 23.056 220.484 23.192 219.684 23.192ZM219.684 21.296C220.196 21.296 220.66 21.208 221.076 21.032C221.492 20.856 221.844 20.608 222.132 20.288C222.42 19.952 222.644 19.56 222.804 19.112C222.964 18.648 223.044 18.152 223.044 17.624C223.044 17.08 222.964 16.592 222.804 16.16C222.66 15.712 222.436 15.328 222.132 15.008C221.844 14.688 221.492 14.44 221.076 14.264C220.66 14.088 220.196 14 219.684 14C219.172 14 218.708 14.088 218.292 14.264C217.876 14.44 217.516 14.688 217.212 15.008C216.924 15.328 216.7 15.712 216.54 16.16C216.38 16.592 216.3 17.08 216.3 17.624C216.3 18.152 216.38 18.64 216.54 19.088C216.7 19.536 216.924 19.928 217.212 20.264C217.516 20.6 217.876 20.856 218.292 21.032C218.708 21.208 219.172 21.296 219.684 21.296ZM227.202 21.488C227.442 21.056 227.65 20.6 227.826 20.12C228.002 19.64 228.154 19.112 228.282 18.536C228.41 17.96 228.506 17.336 228.57 16.664C228.634 15.976 228.666 15.224 228.666 14.408V12.296H236.442V21.488H234.306V13.28L235.65 14.216H229.506L230.658 13.28V15.2C230.658 15.84 230.626 16.448 230.562 17.024C230.514 17.6 230.442 18.152 230.346 18.68C230.25 19.208 230.122 19.712 229.962 20.192C229.802 20.656 229.626 21.112 229.434 21.56L227.202 21.488ZM226.098 25.568V21.08H238.314V25.568H236.466V23H227.946V25.568H226.098ZM241.488 18.32V16.424H248.688V18.32H241.488ZM240.336 23V20.336V19.976V15.44V15.272V12.296H242.472V15.272V15.44V23H240.336ZM247.752 23V20.336V19.976V15.44V15.272V12.296H249.888V15.272V15.44V23H247.752ZM257.522 15.752C258.978 15.752 260.082 16.04 260.834 16.616C261.586 17.192 261.962 18.096 261.962 19.328C261.962 20.544 261.578 21.464 260.81 22.088C260.058 22.696 258.882 23 257.282 23H253.25V12.296H255.386V15.752H257.522ZM263.306 23V12.296H265.442V23H263.306ZM256.994 21.176C257.41 21.176 257.786 21.152 258.122 21.104C258.474 21.056 258.77 20.968 259.01 20.84C259.25 20.712 259.434 20.528 259.562 20.288C259.706 20.048 259.778 19.728 259.778 19.328C259.778 18.64 259.546 18.176 259.082 17.936C258.634 17.68 257.994 17.552 257.162 17.552H255.386V21.176H256.994ZM267.997 23L269.845 12.296H271.429L274.717 19.472L277.933 12.296H279.541L281.365 23H279.349L278.197 15.992L274.981 23H274.285L271.093 16.112L269.917 23H267.997ZM294.965 23.192C294.165 23.192 293.421 23.056 292.733 22.784C292.061 22.496 291.477 22.104 290.981 21.608C290.485 21.112 290.093 20.528 289.805 19.856C289.533 19.168 289.397 18.424 289.397 17.624C289.397 16.824 289.533 16.088 289.805 15.416C290.093 14.728 290.485 14.144 290.981 13.664C291.477 13.168 292.061 12.784 292.733 12.512C293.421 12.24 294.165 12.104 294.965 12.104C295.765 12.104 296.501 12.24 297.173 12.512C297.861 12.784 298.453 13.168 298.949 13.664C299.445 14.144 299.829 14.72 300.101 15.392C300.389 16.064 300.533 16.808 300.533 17.624C300.533 18.424 300.389 19.168 300.101 19.856C299.813 20.528 299.421 21.112 298.925 21.608C298.429 22.104 297.845 22.496 297.173 22.784C296.501 23.056 295.765 23.192 294.965 23.192ZM294.965 21.296C295.477 21.296 295.941 21.208 296.357 21.032C296.773 20.856 297.125 20.608 297.413 20.288C297.701 19.952 297.925 19.56 298.085 19.112C298.245 18.648 298.325 18.152 298.325 17.624C298.325 17.08 298.245 16.592 298.085 16.16C297.941 15.712 297.717 15.328 297.413 15.008C297.125 14.688 296.773 14.44 296.357 14.264C295.941 14.088 295.477 14 294.965 14C294.453 14 293.989 14.088 293.573 14.264C293.157 14.44 292.797 14.688 292.493 15.008C292.205 15.328 291.981 15.712 291.821 16.16C291.661 16.592 291.581 17.08 291.581 17.624C291.581 18.152 291.661 18.64 291.821 19.088C291.981 19.536 292.205 19.928 292.493 20.264C292.797 20.6 293.157 20.856 293.573 21.032C293.989 21.208 294.453 21.296 294.965 21.296ZM308.117 23.192C307.061 23.192 306.165 23.024 305.429 22.688C304.693 22.352 304.101 21.856 303.653 21.2C303.205 20.528 302.877 19.696 302.669 18.704C302.477 17.712 302.381 16.568 302.381 15.272C302.381 13.624 302.549 12.256 302.885 11.168C303.221 10.064 303.685 9.176 304.277 8.504C304.885 7.832 305.597 7.36 306.413 7.088C307.245 6.8 308.141 6.656 309.101 6.656C309.405 6.656 309.669 6.64 309.893 6.608C310.117 6.576 310.317 6.528 310.493 6.464C310.669 6.384 310.821 6.288 310.949 6.176C311.077 6.048 311.197 5.896 311.309 5.72L312.989 6.56C312.877 6.944 312.725 7.264 312.533 7.52C312.341 7.776 312.093 7.984 311.789 8.144C311.485 8.304 311.117 8.424 310.685 8.504C310.253 8.584 309.749 8.632 309.173 8.648C308.341 8.664 307.621 8.768 307.013 8.96C306.405 9.136 305.901 9.496 305.501 10.04C305.117 10.568 304.829 11.328 304.637 12.32C304.461 13.296 304.373 14.592 304.373 16.208L303.773 15.776C303.965 15.12 304.213 14.568 304.517 14.12C304.821 13.656 305.165 13.28 305.549 12.992C305.949 12.704 306.381 12.496 306.845 12.368C307.325 12.224 307.837 12.152 308.381 12.152C309.197 12.152 309.925 12.288 310.565 12.56C311.205 12.832 311.749 13.216 312.197 13.712C312.645 14.192 312.981 14.768 313.205 15.44C313.445 16.096 313.565 16.816 313.565 17.6C313.565 18.48 313.421 19.272 313.133 19.976C312.845 20.664 312.453 21.248 311.957 21.728C311.477 22.192 310.901 22.552 310.229 22.808C309.573 23.064 308.869 23.192 308.117 23.192ZM308.069 21.296C308.549 21.296 308.989 21.208 309.389 21.032C309.789 20.856 310.133 20.616 310.421 20.312C310.709 19.992 310.925 19.608 311.069 19.16C311.229 18.712 311.309 18.208 311.309 17.648C311.309 17.104 311.237 16.616 311.093 16.184C310.949 15.736 310.733 15.352 310.445 15.032C310.173 14.712 309.829 14.464 309.413 14.288C309.013 14.112 308.549 14.024 308.021 14.024C307.525 14.024 307.077 14.112 306.677 14.288C306.277 14.464 305.933 14.704 305.645 15.008C305.357 15.312 305.141 15.688 304.997 16.136C304.853 16.584 304.781 17.08 304.781 17.624C304.781 18.216 304.861 18.736 305.021 19.184C305.197 19.632 305.429 20.016 305.717 20.336C306.005 20.64 306.349 20.88 306.749 21.056C307.149 21.216 307.589 21.296 308.069 21.296ZM317.722 23V14.216H314.794V12.296H319.882V15.752H322.114C323.57 15.752 324.666 16.04 325.402 16.616C326.154 17.192 326.53 18.096 326.53 19.328C326.53 20.544 326.146 21.464 325.378 22.088C324.626 22.696 323.458 23 321.874 23H317.722ZM321.538 21.176C321.954 21.176 322.33 21.152 322.666 21.104C323.018 21.056 323.314 20.968 323.554 20.84C323.81 20.696 324.01 20.504 324.154 20.264C324.298 20.024 324.37 19.712 324.37 19.328C324.37 18.992 324.306 18.712 324.178 18.488C324.066 18.248 323.89 18.064 323.65 17.936C323.426 17.792 323.146 17.696 322.81 17.648C322.49 17.584 322.122 17.552 321.706 17.552H319.882V21.176H321.538ZM333.872 23.192C333.056 23.192 332.304 23.064 331.616 22.808C330.944 22.536 330.352 22.16 329.84 21.68C329.344 21.2 328.952 20.624 328.664 19.952C328.392 19.28 328.256 18.52 328.256 17.672C328.256 16.792 328.4 16.008 328.688 15.32C328.992 14.632 329.4 14.056 329.912 13.592C330.424 13.112 331.008 12.744 331.664 12.488C332.336 12.232 333.04 12.104 333.776 12.104C334.608 12.104 335.344 12.256 335.984 12.56C336.64 12.848 337.192 13.248 337.64 13.76C338.088 14.256 338.424 14.832 338.648 15.488C338.888 16.128 339.008 16.8 339.008 17.504V18.104H329.576V16.52H338.168L336.92 17.792V17.144C336.92 16.696 336.84 16.28 336.68 15.896C336.52 15.512 336.288 15.176 335.984 14.888C335.696 14.6 335.352 14.376 334.952 14.216C334.552 14.04 334.112 13.952 333.632 13.952C333.168 13.952 332.728 14.04 332.312 14.216C331.912 14.376 331.568 14.616 331.28 14.936C330.992 15.256 330.76 15.64 330.584 16.088C330.424 16.536 330.344 17.04 330.344 17.6C330.344 18.176 330.432 18.696 330.608 19.16C330.8 19.624 331.056 20.024 331.376 20.36C331.712 20.68 332.104 20.928 332.552 21.104C333 21.28 333.488 21.368 334.016 21.368C334.688 21.368 335.304 21.24 335.864 20.984C336.44 20.728 336.912 20.376 337.28 19.928L338.576 21.128C338.048 21.816 337.368 22.336 336.536 22.688C335.704 23.024 334.816 23.192 333.872 23.192ZM348.882 23L344.178 17.408L348.138 12.296H350.418V12.608L346.626 17.192L351.33 22.712V23H348.882ZM342.306 18.152V16.424H345.21V18.152H342.306ZM341.61 23V20.336V19.976V15.44V15.272V12.296H343.746V15.272V15.44V23H341.61ZM355.399 23V14.216H351.919V12.296H361.039V14.216H357.559V23H355.399ZM370.839 23V20.336L370.719 19.976V15.44L370.839 15.272V12.296H372.879V15.272V15.44V23H370.839ZM367.071 23.192C366.399 23.192 365.751 23.064 365.127 22.808C364.503 22.552 363.959 22.184 363.495 21.704C363.031 21.224 362.655 20.64 362.367 19.952C362.095 19.264 361.959 18.496 361.959 17.648C361.959 16.8 362.087 16.04 362.343 15.368C362.615 14.68 362.983 14.096 363.447 13.616C363.927 13.136 364.471 12.768 365.079 12.512C365.703 12.24 366.367 12.104 367.071 12.104C367.647 12.104 368.167 12.184 368.631 12.344C369.111 12.488 369.527 12.688 369.879 12.944C370.231 13.2 370.511 13.488 370.719 13.808C370.943 14.112 371.071 14.424 371.103 14.744V17.48H370.719C370.719 17.032 370.647 16.6 370.503 16.184C370.359 15.752 370.151 15.384 369.879 15.08C369.607 14.776 369.263 14.528 368.847 14.336C368.447 14.144 367.991 14.048 367.479 14.048C367.015 14.048 366.583 14.128 366.183 14.288C365.783 14.432 365.431 14.656 365.127 14.96C364.839 15.264 364.607 15.64 364.431 16.088C364.271 16.536 364.191 17.048 364.191 17.624C364.191 18.168 364.271 18.664 364.431 19.112C364.591 19.56 364.815 19.944 365.103 20.264C365.391 20.584 365.735 20.832 366.135 21.008C366.535 21.184 366.967 21.272 367.431 21.272C367.959 21.272 368.423 21.176 368.823 20.984C369.239 20.776 369.583 20.512 369.855 20.192C370.127 19.856 370.335 19.472 370.479 19.04C370.639 18.608 370.719 18.168 370.719 17.72H371.223V20.264C371.143 20.664 370.975 21.04 370.719 21.392C370.479 21.744 370.175 22.056 369.807 22.328C369.455 22.584 369.039 22.792 368.559 22.952C368.095 23.112 367.599 23.192 367.071 23.192ZM375.411 23L377.259 12.296H378.843L382.131 19.472L385.347 12.296H386.955L388.779 23H386.763L385.611 15.992L382.395 23H381.699L378.507 16.112L377.331 23H375.411Z" fill="white"/>
<circle cx="10.5" cy="14.5" r="10.5" fill="white"/>
<path d="M12 10L8 14.5L12 19" stroke="#00428C" stroke-width="2"/>
</svg>
