<svg width="33" height="33" viewBox="0 0 33 33" fill="none" xmlns="http://www.w3.org/2000/svg">
<path d="M32.9969 16.4598C32.9969 18.81 33.0035 21.1602 32.9969 23.517C32.9838 26.9307 31.3951 29.4582 28.5591 31.2439C26.8982 32.2811 25.0535 32.7406 23.0971 32.7406C18.8169 32.7406 14.5431 32.7603 10.2629 32.7341C7.28897 32.7144 4.72868 31.664 2.70014 29.4582C1.44625 28.0927 0.697858 26.4843 0.481218 24.6265C0.435264 24.2326 0.428699 23.8453 0.428699 23.4514C0.428699 18.7706 0.422134 14.0899 0.428699 9.40915C0.448394 5.98886 2.03709 3.46139 4.87311 1.67575C6.54714 0.63194 8.39843 0.178965 10.3679 0.178965C14.635 0.178965 18.9022 0.15927 23.1694 0.18553C26.1564 0.205224 28.7232 1.26217 30.7518 3.48109C31.9925 4.84001 32.7343 6.4484 32.9444 8.28656C33.0298 9.00869 32.9904 9.73083 32.9969 10.4464C33.0035 12.4552 32.9969 14.4575 32.9969 16.4598ZM2.86426 16.4598C2.86426 18.8691 2.8577 21.2718 2.86426 23.6811C2.87082 25.3355 3.47479 26.7601 4.60395 27.9417C6.12043 29.5239 8.01111 30.292 10.1841 30.3051C14.4972 30.3313 18.8037 30.3116 23.1168 30.3116C24.5086 30.3116 25.8347 30.0097 27.0426 29.3138C29.3009 28.0205 30.5745 26.1167 30.5745 23.4514C30.5745 18.7115 30.5745 13.9783 30.5745 9.23846C30.5745 7.59725 29.9771 6.17924 28.8545 5.00413C27.3512 3.41544 25.4539 2.63422 23.2875 2.62109C18.9285 2.58827 14.576 2.60796 10.2169 2.60796C8.85797 2.60796 7.57126 2.92964 6.38959 3.59925C4.13784 4.8991 2.8577 6.8029 2.86426 9.46824C2.86426 11.7988 2.86426 14.1293 2.86426 16.4598Z" fill="#00428C"/>
<path d="M16.7355 23.4185C12.4946 23.4185 9.09403 20.031 9.1006 15.8033C9.10716 11.6871 12.5537 8.31278 16.7618 8.31935C20.9895 8.31935 24.4033 11.7134 24.3967 15.9018C24.3901 20.0507 20.9567 23.4185 16.7355 23.4185ZM16.7355 20.9895C19.6175 20.9895 21.9677 18.6984 21.9677 15.8821C21.9677 13.0526 19.6372 10.7483 16.7618 10.7483C13.8798 10.7483 11.5296 13.0395 11.5296 15.8558C11.5296 18.6853 13.8601 20.9895 16.7355 20.9895Z" fill="#00428C"/>
<path d="M23.6748 7.70209C23.6748 6.76988 24.3904 6.02148 25.2832 6.02148C26.176 6.02148 26.8916 6.77644 26.8916 7.70209C26.8916 8.6146 26.176 9.363 25.2963 9.36956C24.4035 9.37613 23.6748 8.6343 23.6748 7.70209Z" fill="#00428C"/>
</svg>
