<svg width="19" height="19" viewBox="0 0 19 19" fill="none" xmlns="http://www.w3.org/2000/svg">
<path d="M17.9466 0.385353C17.8432 0.0857226 17.5195 -0.0721674 17.2238 0.0321426C16.928 0.136453 16.7718 0.463823 16.8748 0.763453C17.7486 3.30014 16.0141 5.19368 14.6927 6.20828L14.1574 5.4346C13.9785 5.17601 13.5764 4.96055 13.2646 4.9558L10.267 4.96948C9.95539 4.96454 9.49084 5.10913 9.23529 5.29039L0.403336 11.5494C-0.0243544 11.8526 -0.128474 12.4492 0.170966 12.8824L4.1851 18.6846C4.48473 19.1178 4.96619 19.066 5.39388 18.7629L14.2256 12.5041C14.4812 12.3227 14.7738 11.9303 14.8766 11.632L15.8152 8.64313C15.9174 8.34464 15.8551 7.88902 15.6759 7.63024L15.3497 7.15885C17.1264 5.78572 18.9698 3.35638 17.9466 0.385353ZM13.8375 9.27355C13.1529 9.75843 12.2094 9.5899 11.7302 8.89735C11.2508 8.20423 11.4171 7.24967 12.102 6.76422C12.6452 6.37909 13.3509 6.40721 13.8588 6.78094C13.603 6.93674 13.4276 7.02642 13.3942 7.04238C13.1111 7.17766 12.9901 7.51966 13.1233 7.80618C13.2202 8.01423 13.4242 8.13602 13.6372 8.13602C13.7182 8.13602 13.8004 8.11816 13.8787 8.08092C14.0607 7.99409 14.2566 7.88921 14.4609 7.76704C14.553 8.33058 14.3309 8.92395 13.8375 9.27355Z" fill="#00428C"/>
</svg>
