<svg width="34" height="39" viewBox="0 0 34 39" fill="none" xmlns="http://www.w3.org/2000/svg">
<path d="M30.1429 33.9084V34.9892C30.1429 35.5415 29.6951 35.9892 29.1429 35.9892H4.28571C3.73343 35.9892 3.28571 35.5415 3.28571 34.9892V24.7619C3.28571 24.2096 3.73343 23.7619 4.28571 23.7619H26.2143C26.7666 23.7619 27.2143 23.3142 27.2143 22.7619V21.7253C27.2143 21.173 26.7666 20.7253 26.2143 20.7253H4.28571C3.73343 20.7253 3.28571 20.2776 3.28571 19.7253V13.9472C3.28571 13.6303 3.4359 13.3322 3.69054 13.1436L15.5723 4.34356C15.914 4.0905 16.3783 4.08117 16.7299 4.3203L29.7053 13.1458C29.979 13.332 30.1429 13.6416 30.1429 13.9727V14.8241C30.1429 15.3763 30.5906 15.8241 31.1429 15.8241H33C33.5523 15.8241 34 15.3763 34 14.8241V12.7797C34 12.4501 33.8376 12.1417 33.5658 11.9552L16.7382 0.408487C16.3828 0.164621 15.9111 0.175915 15.5678 0.436511L0.395399 11.953C0.146301 12.1421 0 12.4368 0 12.7495V38C0 38.5523 0.447716 39 1 39H33C33.5523 39 34 38.5523 34 38V33.9084C34 33.3562 33.5523 32.9084 33 32.9084H31.1429C30.5906 32.9084 30.1429 33.3562 30.1429 33.9084Z" fill="#00428C"/>
</svg>
