<svg width="21" height="15" viewBox="0 0 21 15" fill="none" xmlns="http://www.w3.org/2000/svg">
<path d="M2.1 0C0.948521 0 0 1.01627 0 2.25V12.75C0 13.9837 0.948521 15 2.1 15H18.9C20.0515 15 21 13.9837 21 12.75V2.25C21 1.01627 20.0515 0 18.9 0H2.1ZM2.38984 1.5H18.6088L12.3744 8.16943C11.3295 9.28724 9.65778 9.28711 8.61328 8.16797L2.38984 1.5ZM19.6 2.55908V12.4409L14.9816 7.5L19.6 2.55908ZM1.4 2.56055L6.01016 7.5L1.4 12.4395V2.56055ZM13.9918 8.55908L18.6102 13.5H2.38984L7 8.56055L7.62344 9.22852C9.20253 10.9204 11.7828 10.9216 13.3629 9.23145L13.9918 8.55908Z" fill="white"/>
</svg>
