<svg width="24" height="25" viewBox="0 0 24 25" fill="none" xmlns="http://www.w3.org/2000/svg">
<path d="M23.892 19.9261L23.7726 19.5512C23.4896 18.6752 22.5623 17.7616 21.7104 17.5209L18.5573 16.6237C17.7022 16.3814 16.4825 16.7072 15.8569 17.3588L14.7157 18.5476C10.5685 17.3802 7.31642 13.9925 6.19729 9.67336L7.3385 8.48459C7.9641 7.83292 8.27686 6.56405 8.04423 5.67336L7.18444 2.38727C6.95181 1.4982 6.07315 0.532217 5.23383 0.24075L4.8739 0.114691C4.03296 -0.176776 2.83366 0.117992 2.2081 0.769613L0.501087 2.54938C0.19613 2.86536 0.00122486 3.76916 0.00122486 3.77246C-0.0584789 9.41788 2.06661 14.857 5.90023 18.8504C9.72443 22.8339 14.9264 25.0443 20.3303 24.9969C20.3585 24.9969 21.2513 24.7971 21.5563 24.481L23.2633 22.7029C23.8889 22.0513 24.1718 20.8021 23.892 19.9261Z" fill="#00428C"/>
</svg>
