<svg width="12" height="13" viewBox="0 0 12 13" fill="none" xmlns="http://www.w3.org/2000/svg">
<path d="M11.946 10.3624L11.8863 10.1674C11.7448 9.71176 11.2811 9.23661 10.8552 9.11142L9.27864 8.64477C8.8511 8.51874 8.24124 8.68821 7.92844 9.02711L7.35785 9.64536C5.28424 9.03823 3.65821 7.27632 3.09864 5.02993L3.66925 4.41166C3.98205 4.07272 4.13843 3.41279 4.02211 2.94954L3.59222 1.24047C3.4759 0.778065 3.03658 0.275661 2.61691 0.12407L2.43695 0.0585075C2.01648 -0.0930829 1.41683 0.0602242 1.10405 0.399129L0.250543 1.32478C0.0980648 1.48912 0.000612429 1.95918 0.000612429 1.9609C-0.0292394 4.89706 1.03331 7.72591 2.95011 9.80286C4.86222 11.8747 7.4632 13.0243 10.1651 12.9996C10.1793 12.9996 10.6257 12.8957 10.7781 12.7313L11.6317 11.8065C11.9444 11.4677 12.0859 10.8179 11.946 10.3624Z" fill="white"/>
</svg>
