<svg width="29" height="29" viewBox="0 0 29 29" fill="none" xmlns="http://www.w3.org/2000/svg">
<path d="M16.5801 9.6377C16.8312 10.4099 17.5214 10.9482 18.3203 11.0127L18.4824 11.0195H25.2129L19.7676 14.9756C19.1103 15.4531 18.811 16.2765 18.9971 17.0566L19.041 17.2119L21.1211 23.6123L15.6758 19.6562C15.0186 19.1788 14.1434 19.1497 13.459 19.5674L13.3242 19.6562L7.87891 23.6123L9.95898 17.2119C10.21 16.4394 9.9682 15.597 9.35938 15.0752L9.23242 14.9756L3.78711 11.0195H10.5176C11.3297 11.0195 12.056 10.5292 12.3643 9.78906L12.4199 9.6377L14.5 3.23633L16.5801 9.6377Z" stroke="white" stroke-width="2"/>
</svg>
